<svg xmlns="http://www.w3.org/2000/svg" viewBox="0 0 300.9 73.42"><defs><style>.cls-1,.cls-2{fill:#1c1e15;stroke:#dacfbe;stroke-miterlimit:10;}.cls-1{stroke-width:0.91px;}.cls-2{stroke-width:0.46px;}</style></defs><g id="Layer_2" data-name="Layer 2"><g id="White_on_Black" data-name="White on Black"><path class="cls-1" d="M18.87,37.61a6.68,6.68,0,0,1-.54,2.68,7,7,0,0,1-1.49,2.19A6.8,6.8,0,0,1,14.65,44a6.69,6.69,0,0,1-2.68.55H.46v-23H12a6.53,6.53,0,0,1,2.68.55,6.78,6.78,0,0,1,2.19,1.48,7.2,7.2,0,0,1,1.49,2.19,6.72,6.72,0,0,1,.54,2.68,5.09,5.09,0,0,1-.17,1.32,6.84,6.84,0,0,1-.5,1.3,5.31,5.31,0,0,1-.77,1.14,4.22,4.22,0,0,1-1,.85,3.65,3.65,0,0,1,1,.83,6,6,0,0,1,1.26,2.46A5.54,5.54,0,0,1,18.87,37.61Zm-13.8-6.9H12a2.26,2.26,0,0,0,.9-.18A2.29,2.29,0,0,0,13.6,30a2.22,2.22,0,0,0,.49-.74,2.27,2.27,0,0,0,.18-.91,2.18,2.18,0,0,0-.18-.89,2.33,2.33,0,0,0-.49-.74A2.23,2.23,0,0,0,12,26.1H5.07Zm0,9.2H12a2.26,2.26,0,0,0,.9-.18,2.28,2.28,0,0,0,1.22-1.22,2.34,2.34,0,0,0,0-1.8,2.28,2.28,0,0,0-1.22-1.22,2.25,2.25,0,0,0-.9-.17H5.07Z"/><path class="cls-1" d="M44.49,29.94a12,12,0,0,0-1.19-2.85A12.13,12.13,0,0,0,39,22.82a12,12,0,0,0-2.85-1.19A11.43,11.43,0,0,0,33,21.2c-.31,0-.62,0-.92,0a11,11,0,0,0-2.23.39l-.66.2a11.73,11.73,0,0,0-4.6,2.85,12.37,12.37,0,0,0-1.87,2.41,11.64,11.64,0,0,0-1.21,2.85,11.82,11.82,0,0,0,1.21,9.16,12.08,12.08,0,0,0,1.87,2.41A11.46,11.46,0,0,0,27,43.38a12.22,12.22,0,0,0,2.85,1.21A11.68,11.68,0,0,0,33,45a11.81,11.81,0,0,0,3.16-.42A12,12,0,0,0,39,43.38a11.66,11.66,0,0,0,2.4-1.87,11.64,11.64,0,0,0,3.06-5.26,11.79,11.79,0,0,0,0-6.31Zm-4.73,6a7.29,7.29,0,0,1-1.56,2.32,7.56,7.56,0,0,1-2.33,1.58,7.44,7.44,0,0,1-5.71,0,7.68,7.68,0,0,1-2.33-1.58,7.49,7.49,0,0,1-1.57-2.32,6.89,6.89,0,0,1-.58-2.83,7,7,0,0,1,.58-2.85,7.53,7.53,0,0,1,1.57-2.33,7.65,7.65,0,0,1,2.33-1.57,6.32,6.32,0,0,1,.61-.22A7,7,0,0,1,33,25.78c.22,0,.42,0,.63,0a7.08,7.08,0,0,1,2.22.54,7.53,7.53,0,0,1,2.33,1.57,7.33,7.33,0,0,1,1.56,2.33,7,7,0,0,1,.58,2.85A6.89,6.89,0,0,1,39.76,35.93Z"/><path class="cls-1" d="M66.1,44.52H61.49V39.91H52.27v4.61H47.68V30.71a9,9,0,0,1,.72-3.59,9.27,9.27,0,0,1,2-2.93,9.09,9.09,0,0,1,6.51-2.7,9,9,0,0,1,3.59.72,9.13,9.13,0,0,1,2.93,2,9.3,9.3,0,0,1,2,2.93,9,9,0,0,1,.72,3.59Zm-4.61-9.2V30.71a4.51,4.51,0,0,0-.36-1.79,4.43,4.43,0,0,0-1-1.47,4.64,4.64,0,0,0-1.47-1,4.63,4.63,0,0,0-3.58,0,4.64,4.64,0,0,0-1.47,1,4.43,4.43,0,0,0-1,1.47,4.51,4.51,0,0,0-.36,1.79v4.61Z"/><path class="cls-1" d="M97.68,42.16A11.87,11.87,0,0,1,90,45a11.86,11.86,0,0,1-3.16-.42,12.09,12.09,0,0,1-7.13-5.49,11.85,11.85,0,0,1-1.2-9.16,11.62,11.62,0,0,1,1.2-2.85,12.06,12.06,0,0,1,7.13-5.5,12.07,12.07,0,0,1,7.29.31A11.57,11.57,0,0,1,97.68,24l-2.44,4a6.82,6.82,0,0,0-2.39-1.68A7.35,7.35,0,0,0,90,25.78a7,7,0,0,0-2.86.58,7.45,7.45,0,0,0-2.33,1.56,7.36,7.36,0,0,0-1.57,2.33,7,7,0,0,0-.58,2.85,6.89,6.89,0,0,0,.58,2.83,7.32,7.32,0,0,0,1.57,2.32,7.5,7.5,0,0,0,2.33,1.58,7.2,7.2,0,0,0,2.86.58,7.36,7.36,0,0,0,2.89-.59,6.82,6.82,0,0,0,2.39-1.68Z"/><path class="cls-1" d="M122.25,33.1a11.35,11.35,0,0,1-.43,3.15,12.17,12.17,0,0,1-1.19,2.85,11.8,11.8,0,0,1-1.87,2.41,11.82,11.82,0,0,1-5.25,3.08,12.06,12.06,0,0,1-6.31,0,12.22,12.22,0,0,1-2.85-1.21,12.08,12.08,0,0,1-2.41-1.87,11.8,11.8,0,0,1-1.87-2.41,12.22,12.22,0,0,1-1.21-2.85,12.06,12.06,0,0,1,0-6.31,12.11,12.11,0,0,1,5.49-7.12,12.17,12.17,0,0,1,2.85-1.19,11.79,11.79,0,0,1,6.31,0,11.8,11.8,0,0,1,8.31,8.31A11.43,11.43,0,0,1,122.25,33.1Zm-4.58,0a7.18,7.18,0,0,0-.57-2.85,7.53,7.53,0,0,0-1.57-2.33,7.22,7.22,0,0,0-2.33-1.56,7.32,7.32,0,0,0-5.71,0,7.45,7.45,0,0,0-2.33,1.56,7.53,7.53,0,0,0-1.57,2.33A7.19,7.19,0,0,0,103,33.1a7.06,7.06,0,0,0,.58,2.83,7.44,7.44,0,0,0,3.9,3.9,7.32,7.32,0,0,0,5.71,0,7.28,7.28,0,0,0,2.33-1.58,7.49,7.49,0,0,0,1.57-2.32A7,7,0,0,0,117.67,33.1Z"/><path class="cls-1" d="M143.69,44.52h-4.93l-8.88-15.16V44.52h-4.61v-23h4.93l8.88,15.17V21.49h4.61Z"/><path class="cls-1" d="M146.61,28.39a6.72,6.72,0,0,1,.54-2.68,7.2,7.2,0,0,1,1.49-2.19A7,7,0,0,1,150.83,22a6.56,6.56,0,0,1,2.68-.55h10.57V26.1H153.51a2.23,2.23,0,0,0-1.63.66,2.28,2.28,0,0,0-.66,1.63,2.46,2.46,0,0,0,.17.91,2.22,2.22,0,0,0,.49.74,2.29,2.29,0,0,0,.73.49,2.26,2.26,0,0,0,.9.18h4.61a6.94,6.94,0,0,1,2.69.53,7.1,7.1,0,0,1,2.2,1.48,6.93,6.93,0,0,1,1.48,2.2,6.77,6.77,0,0,1,.54,2.69,6.68,6.68,0,0,1-.54,2.68A6.78,6.78,0,0,1,163,42.48a7,7,0,0,1-2.2,1.49,6.78,6.78,0,0,1-2.69.55H147.89V39.91h10.23a2.26,2.26,0,0,0,.9-.18,2.28,2.28,0,0,0,1.22-1.22,2.34,2.34,0,0,0,0-1.8A2.28,2.28,0,0,0,159,35.49a2.25,2.25,0,0,0-.9-.17h-4.61a6.73,6.73,0,0,1-2.68-.55,7.06,7.06,0,0,1-3.68-3.69A6.73,6.73,0,0,1,146.61,28.39Z"/><path class="cls-1" d="M177.39,44.52H172.8V26.1h-6.92V21.49h18.41V26.1h-6.9Z"/><path class="cls-1" d="M191.34,44.52h-4.61v-23H196a8.93,8.93,0,0,1,2.44.33,9.22,9.22,0,0,1,4.06,2.38,9,9,0,0,1,1.44,1.87,9.15,9.15,0,0,1,.93,2.2,9.2,9.2,0,0,1-.82,6.88A9.17,9.17,0,0,1,202.65,37a9.41,9.41,0,0,1-1.8,1.47l2.55,6h-4.9l-2-4.64-5.16,0Zm0-18.42v9.22H196a4.43,4.43,0,0,0,1.78-.37,4.59,4.59,0,0,0,2.45-2.45,4.63,4.63,0,0,0,0-3.58,4.43,4.43,0,0,0-1-1.47,4.49,4.49,0,0,0-1.46-1A4.42,4.42,0,0,0,196,26.1Z"/><path class="cls-1" d="M212.78,44.52h-4.61v-23h4.61Z"/><path class="cls-1" d="M224.85,39.83a7.68,7.68,0,0,1-2.33-1.58A7.49,7.49,0,0,1,221,35.93a7.06,7.06,0,0,1-.58-2.83,7.19,7.19,0,0,1,.58-2.85,7.53,7.53,0,0,1,1.57-2.33,7.65,7.65,0,0,1,2.33-1.57,7.19,7.19,0,0,1,2.86-.57,7.31,7.31,0,0,1,2.89.58A6.82,6.82,0,0,1,233,28l2.45-4a11.43,11.43,0,0,0-3.6-2.13,11.86,11.86,0,0,0-4.13-.73,11.35,11.35,0,0,0-3.15.43,11.55,11.55,0,0,0-2.84,1.2,12,12,0,0,0-4.29,4.29,11.64,11.64,0,0,0-1.21,2.85,11.82,11.82,0,0,0,1.21,9.16,12.08,12.08,0,0,0,1.87,2.41,11.52,11.52,0,0,0,2.42,1.87,12,12,0,0,0,2.84,1.21,11.74,11.74,0,0,0,3.15.42,12,12,0,0,0,2-.16,20.94,20.94,0,0,1-2.37-4.46A7.12,7.12,0,0,1,224.85,39.83Zm5.75,0-.34.14a18.63,18.63,0,0,0,2.34,4,11.8,11.8,0,0,0,2.84-1.81l-2.45-4A6.82,6.82,0,0,1,230.6,39.82Z"/><path class="cls-1" d="M247.77,44.52h-4.6V26.1h-6.92V21.49h18.42V26.1h-6.9Z"/><path class="cls-1" d="M279,33.1a11.35,11.35,0,0,1-.43,3.15,12.17,12.17,0,0,1-1.19,2.85,11.38,11.38,0,0,1-1.87,2.41,11.66,11.66,0,0,1-2.4,1.87,12.15,12.15,0,0,1-2.84,1.21,12.3,12.3,0,0,1-5.34.23,21.71,21.71,0,0,0,2.34-4.42,7.15,7.15,0,0,0,2.68-.57,7.44,7.44,0,0,0,3.9-3.9,7,7,0,0,0,.57-2.83,7.18,7.18,0,0,0-.57-2.85,7.53,7.53,0,0,0-1.57-2.33,7.42,7.42,0,0,0-2.33-1.57l-.44-.16a7.18,7.18,0,0,0-2.41-.41h-.45a7.25,7.25,0,0,0-2.41.56,7.77,7.77,0,0,0-2.33,1.57,7.53,7.53,0,0,0-1.57,2.33,7.19,7.19,0,0,0-.58,2.85,7.06,7.06,0,0,0,.58,2.83,7.49,7.49,0,0,0,1.57,2.32,7.8,7.8,0,0,0,2.33,1.58l.13.05a17.7,17.7,0,0,1-2.32,4c-.32-.15-.63-.32-.95-.5a11.46,11.46,0,0,1-2.41-1.87,12.08,12.08,0,0,1-1.87-2.41,12.22,12.22,0,0,1-1.21-2.85,12.06,12.06,0,0,1,0-6.31,12,12,0,0,1,1.21-2.85,12.37,12.37,0,0,1,1.87-2.41,12.11,12.11,0,0,1,2.41-1.86,12.35,12.35,0,0,1,2.85-1.19,11.35,11.35,0,0,1,3.15-.43c.35,0,.7,0,1,.05a11.89,11.89,0,0,1,2.13.38c.25.07.49.14.74.23a12.51,12.51,0,0,1,2.1,1,12.34,12.34,0,0,1,2.4,1.86,11.64,11.64,0,0,1,1.87,2.41,12,12,0,0,1,1.19,2.85A11.43,11.43,0,0,1,279,33.1Z"/><path class="cls-1" d="M286.58,44.52H282v-23h9.22a9,9,0,0,1,2.44.33,9.25,9.25,0,0,1,2.19.93,9,9,0,0,1,1.86,1.45,9.45,9.45,0,0,1,1.45,1.87,9.15,9.15,0,0,1,.93,2.2,9.12,9.12,0,0,1,0,4.75,9.38,9.38,0,0,1-.85,2.13,9,9,0,0,1-3.16,3.34l2.56,6h-4.9l-2-4.64-5.15,0Zm0-18.42v9.22h4.61A4.47,4.47,0,0,0,293,35a4.87,4.87,0,0,0,1.46-1,4.64,4.64,0,0,0,1-1.47,4.63,4.63,0,0,0,0-3.58,4.43,4.43,0,0,0-1-1.47,4.72,4.72,0,0,0-1.46-1,4.46,4.46,0,0,0-1.78-.36Z"/><path class="cls-2" d="M113.48,32.7a3.14,3.14,0,0,1-1.11,2.38,40.49,40.49,0,0,1-80.81.34,3.11,3.11,0,1,1,3.19-.11,37.29,37.29,0,0,0,74.38.25,3.11,3.11,0,1,1,4.35-2.86Z"/><path class="cls-2" d="M270.33,32.7a3.12,3.12,0,0,1-1.87,2.85,20.81,20.81,0,0,1-1.24,4.85,21.71,21.71,0,0,1-2.34,4.42,21.36,21.36,0,0,1-35.18,0,20.94,20.94,0,0,1-2.37-4.46,20.6,20.6,0,0,1-1.24-4.84,3.11,3.11,0,1,1,2.87-.2,18.49,18.49,0,0,0,33,8.53,17.7,17.7,0,0,0,2.32-4,18.23,18.23,0,0,0,1.27-4.53,3.11,3.11,0,1,1,4.74-2.65Z"/><path class="cls-2" d="M32.1,21.24a11.79,11.79,0,0,0-2.24.39l-.65.2C25.55,13.91,21.87,7.71,14.54,5c-.38-.15-.78-.28-1.18-.4-.71-.21-1.44-.39-2.22-.54Q10.53,4,9.88,3.89c-.75-.11-1.54-.19-2.36-.24a1.84,1.84,0,0,1-1.2.43,1.93,1.93,0,1,1,0-3.85A2,2,0,0,1,7.67.78h0c.83,0,1.63.12,2.4.23q.67.08,1.32.21c.68.12,1.33.26,2,.43a22.74,22.74,0,0,1,3,1,21.58,21.58,0,0,1,5.28,3.1c.53.43,1.05.88,1.55,1.35C27,10.69,29.63,15.58,32.1,21.24Z"/><path class="cls-2" d="M300.67.71V3.58c-13.44,0-25,7.57-29.71,18.28-.25-.09-.49-.16-.74-.23a11.89,11.89,0,0,0-2.13-.38C273.12,9.25,285.83.71,300.67.71Z"/></g></g></svg>